<?xml version="1.0"?>
<svg xmlns="http://www.w3.org/2000/svg" xmlns:xlink="http://www.w3.org/1999/xlink" version="1.1" id="Capa_1" x="0px" y="0px" viewBox="0 0 477.778 477.778" style="enable-background:new 0 0 477.778 477.778;" xml:space="preserve" width="512px" height="512px" class=""><g><path d="M461.96,159.034H286.667v-14.262c0-8.734-7.084-15.818-15.818-15.818h-16.034V90.47h-31.852v38.485h-16.034  c-8.734,0-15.818,7.084-15.818,15.818v14.262H15.818C7.084,159.034,0,166.118,0,174.85v196.641c0,8.732,7.084,15.818,15.818,15.818  H461.96c8.734,0,15.818-7.086,15.818-15.818V174.85C477.778,166.118,470.694,159.034,461.96,159.034z M150.115,287.319  c0,3.166-2.621,5.732-5.848,5.732h-28.049v28.742c0,3.164-2.621,5.732-5.848,5.732H90.525c-3.228,0-5.848-2.567-5.848-5.732v-28.742  H56.628c-3.228,0-5.848-2.566-5.848-5.732v-19.447c0-3.166,2.62-5.732,5.848-5.732h28.049v-28.749c0-3.164,2.62-5.73,5.848-5.73  h19.845c3.227,0,5.848,2.566,5.848,5.73v28.749h28.049c3.227,0,5.848,2.566,5.848,5.732V287.319z M344.15,343.682  c-18.695,0-33.843-15.149-33.843-33.843c0-18.694,15.147-33.843,33.843-33.843c18.694,0,33.843,15.149,33.843,33.843  C377.992,328.534,362.844,343.682,344.15,343.682z M407.441,270.343c-18.694,0-33.843-15.147-33.843-33.843  c0-18.694,15.149-33.843,33.843-33.843c18.694,0,33.843,15.149,33.843,33.843C441.284,255.196,426.135,270.343,407.441,270.343z" data-original="#000000" class="active-path" data-old_color="#000000" fill="#FFFFFF"/></g> </svg>
