<?xml version="1.0"?>
<svg xmlns="http://www.w3.org/2000/svg" id="bold" enable-background="new 0 0 24 24" height="512px" viewBox="0 0 24 24" width="512px" class=""><g><g><path d="m5 11c1.103 0 2-.897 2-2s-.897-2-2-2-2 .897-2 2 .897 2 2 2z" data-original="#000000" class="active-path" data-old_color="#000000" fill="#FFFFFF"/></g><path d="m21 5h-10.586l-1.706-1.707c-.188-.188-.442-.293-.708-.293h-5c-1.654 0-3 1.346-3 3v12c0 1.654 1.346 3 3 3h18c1.654 0 3-1.346 3-3v-10c0-1.654-1.346-3-3-3zm-18 0h4.586l1.707 1.707c.187.188.442.293.707.293h11c.551 0 1 .449 1 1v6.939l-5.26-5.26c-.684-.684-1.797-.684-2.48 0l-4.76 4.76-1.26-1.26c-.684-.684-1.797-.684-2.48 0l-3.76 3.76v-10.939c0-.551.449-1 1-1z" data-original="#000000" class="active-path" data-old_color="#000000" fill="#FFFFFF"/></g> </svg>
