<?xml version="1.0" encoding="UTF-8" standalone="no"?>
<!-- Generator: Adobe Illustrator 16.0.3, SVG Export Plug-In . SVG Version: 6.00 Build 0)  -->

<svg
   xmlns:dc="http://purl.org/dc/elements/1.1/"
   xmlns:cc="http://creativecommons.org/ns#"
   xmlns:rdf="http://www.w3.org/1999/02/22-rdf-syntax-ns#"
   xmlns:svg="http://www.w3.org/2000/svg"
   xmlns="http://www.w3.org/2000/svg"
   xmlns:sodipodi="http://sodipodi.sourceforge.net/DTD/sodipodi-0.dtd"
   xmlns:inkscape="http://www.inkscape.org/namespaces/inkscape"
   version="1.1"
   id="Layer_1"
   x="0px"
   y="0px"
   width="250.19977"
   height="272.3045"
   viewBox="0 0 250.19976 272.30449"
   enable-background="new 0 0 841.89 595.28"
   xml:space="preserve"
   sodipodi:docname="Qwirk.svg"
   inkscape:version="0.92.4 (5da689c313, 2019-01-14)"><metadata
   id="metadata896"><rdf:RDF><cc:Work
       rdf:about=""><dc:format>image/svg+xml</dc:format><dc:type
         rdf:resource="http://purl.org/dc/dcmitype/StillImage" /><dc:title></dc:title></cc:Work></rdf:RDF></metadata><defs
   id="defs894" /><sodipodi:namedview
   pagecolor="#ffffff"
   bordercolor="#666666"
   borderopacity="1"
   objecttolerance="10"
   gridtolerance="10"
   guidetolerance="10"
   inkscape:pageopacity="0"
   inkscape:pageshadow="2"
   inkscape:window-width="1920"
   inkscape:window-height="1017"
   id="namedview892"
   showgrid="false"
   fit-margin-top="0.1"
   fit-margin-right="0.1"
   fit-margin-bottom="0.1"
   fit-margin-left="0.1"
   inkscape:zoom="0.39645207"
   inkscape:cx="123.72741"
   inkscape:cy="136.15198"
   inkscape:window-x="-8"
   inkscape:window-y="-8"
   inkscape:window-maximized="1"
   inkscape:current-layer="Layer_1" />
<path
   d="M 250.03085,23.08823 C 249.12271,10.24224 238.4215,0.1 225.34404,0.1 H 168.31376 80.11753 23.08823 V 0.1699 C 10.24224,1.07755 0.1,11.77975 0.1,24.85671 v 46.63786 98.58866 46.63835 h 0.0699 c 0.90765,12.84549 11.60936,22.98823 24.68681,22.98823 h 57.02979 88.19623 2.87366 l -5e-4,0.001 h 19.28622 l -7.29519,-25.03352 65.15285,57.5272 v -57.2524 -37.79627 -8.84208 -98.58865 -46.63737 z m -26.01504,51.17119 c -0.60034,8.40032 -4.45995,19.78461 -21.88998,18.68292 10.40178,21.92889 11.97182,46.86489 0.25806,65.97628 -25.19949,41.11464 -73.82847,30.06277 -103.89026,25.19899 -30.06179,-4.8628 -74.27072,-24.314 -53.49276,-87.53285 2.7722,-8.43431 6.46337,-15.56697 10.76819,-21.6142 C 47.72825,71.55961 31.1182,63.03666 35.68699,52.37633 41.65492,38.45081 49.28106,26.18251 63.86995,31.15612 c 12.0127,4.09502 15.92992,15.6039 17.30987,21.76391 26.81434,-14.1097 56.65944,-10.2698 56.65944,-10.2698 18.09194,2.3925 34.20655,11.76892 46.64427,24.71538 1.17556,-6.80664 4.66876,-16.37711 14.99666,-17.64181 16.2466,-1.98964 25.199,15.25178 24.53562,24.53562 z"
   id="path883"
   inkscape:connector-curvature="0"
   style="fill:#FFF;stroke-width:0.49248526" />
<path
   d="m 116.35607,143.38809 c 0,0 6.85293,-2.65252 11.3838,1.10465 0,0 -2.65204,5.08392 -6.29938,5.41537 -3.64735,0.33193 -5.08442,-6.52002 -5.08442,-6.52002 z"
   id="path885"
   inkscape:connector-curvature="0"
   style="fill:#FFF;stroke-width:0.49248526" />
<path
   d="m 127.85018,167.64595 c -0.32405,-0.20143 -0.62496,-0.42059 -0.92587,-0.63974 -0.29401,-0.22457 -0.58704,-0.44866 -0.87317,-0.67815 -0.56883,-0.46195 -1.11942,-0.93622 -1.65229,-1.42181 -0.53336,-0.48263 -1.05589,-0.97561 -1.5666,-1.45825 l -0.38364,-0.35606 c -0.1251,-0.12313 -0.25068,-0.23689 -0.37626,-0.34671 -0.12657,-0.11721 -0.25019,-0.21916 -0.36592,-0.31618 -0.12805,-0.11672 -0.21128,-0.15907 -0.30189,-0.23245 l 0.61216,0.11524 -0.25807,0.063 -0.34966,0.12066 c -0.11672,0.0389 -0.23787,0.10243 -0.35853,0.1502 -0.12017,0.0532 -0.24378,0.097 -0.36345,0.15858 -0.23886,0.12854 -0.48264,0.25117 -0.72888,0.37626 -0.24181,0.1379 -0.47574,0.29352 -0.72445,0.43093 -0.12115,0.0739 -0.25117,0.13494 -0.3669,0.22014 l -0.35902,0.24082 c -0.2428,0.15858 -0.48608,0.32012 -0.74464,0.47082 -0.24575,0.16498 -0.47574,0.34966 -0.7338,0.5112 -0.25068,0.16892 -0.50923,0.3344 -0.78453,0.49052 0.25412,-0.56341 0.56143,-1.10022 0.8909,-1.62865 0.17779,-0.25314 0.37134,-0.49544 0.56439,-0.74021 l 0.29549,-0.36444 c 0.098,-0.12263 0.21867,-0.22408 0.32849,-0.33784 0.2231,-0.22359 0.45555,-0.43831 0.69047,-0.65353 0.25658,-0.19355 0.51464,-0.38808 0.77862,-0.57769 0.13494,-0.0911 0.28465,-0.16892 0.42698,-0.25363 0.14725,-0.0798 0.2817,-0.17237 0.44324,-0.23836 l 0.48017,-0.20438 0.26988,-0.0882 0.13691,-0.0409 0.19552,-0.0394 0.32553,-0.0655 0.28712,0.18074 c 0.20832,0.13149 0.43585,0.27776 0.57867,0.40335 0.16843,0.12952 0.31913,0.26348 0.45555,0.39595 0.29106,0.26447 0.54764,0.53287 0.80177,0.81014 0.2556,0.27235 0.49396,0.55651 0.72937,0.84018 0.23393,0.28564 0.46047,0.57572 0.67963,0.8717 0.44126,0.58852 0.84658,1.20364 1.22727,1.83648 0.18862,0.31814 0.36641,0.64466 0.5437,0.97118 0.16843,0.3344 0.33637,0.6683 0.47574,1.02388 z"
   id="path887"
   inkscape:connector-curvature="0"
   style="fill:#FFF;stroke-width:0.49248526" />
<path
   d="m 192.67553,109.52087 c -3.22627,-17.68466 -17.7147,-29.97413 -30.99456,-24.67795 -10.7416,4.28315 -22.83507,5.09624 -27.06847,5.25088 -9.9e-4,0 -0.001,0 -0.002,0 -0.36986,0.0222 -0.71903,0.0296 -1.05688,0.03 -0.32405,0.006 -0.50578,0.006 -0.50578,0.006 l -0.0936,-0.0153 c -2.91305,-0.097 -4.47965,-0.90913 -4.47965,-0.90913 v 0 C 125.07644,87.96431 113.19721,83.28964 103.93504,75.46651 93.0127,66.24128 75.38025,73.31484 66.72482,89.07043 c -8.65493,15.75707 -3.86847,47.47016 9.11787,50.93282 10.80267,2.88252 27.29354,-15.3419 41.65293,-17.86293 l -9.9e-4,-0.002 c 0,0 6.60423,-1.58433 14.35693,1.67248 1.24993,0.48017 2.47228,1.11843 3.66803,1.88573 0.0153,0.009 0.0305,0.0177 0.0458,0.0271 l -9.9e-4,4.9e-4 c 12.09692,7.79063 21.63094,28.57104 32.34692,29.22802 13.41432,0.82442 27.9904,-27.74514 24.76463,-45.43127 z m -85.61118,-1.19822 c -0.46589,2.87119 -3.17111,4.81995 -6.04181,4.35406 l -6.92976,-1.12533 -1.12533,6.93026 c -0.46638,2.87168 -3.17111,4.82044 -6.04181,4.35455 -2.87119,-0.46638 -4.82044,-3.17111 -4.35406,-6.0423 l 1.12533,-6.93025 -6.93025,-1.12533 c -2.8707,-0.46589 -4.82045,-3.17062 -4.35406,-6.04181 0.46589,-2.8707 3.17062,-4.81995 6.04181,-4.35357 l 6.93025,1.12533 1.12533,-6.93025 c 0.46589,-2.8707 3.17062,-4.81996 6.0423,-4.35357 2.87119,0.46638 4.81995,3.17062 4.35357,6.04131 l -1.12533,6.93075 6.93025,1.12533 c 2.8707,0.46539 4.81995,3.16963 4.35357,6.04082 z m 53.63903,-3.35776 c 0.58852,-3.62273 4.00194,-6.08269 7.62417,-5.49417 3.62272,0.58803 6.08219,4.00144 5.49367,7.62416 -0.58753,3.62223 -4.00144,6.08269 -7.62367,5.49417 -3.62174,-0.58803 -6.0817,-4.00144 -5.49417,-7.62416 z m -8.62489,17.39852 c -3.62223,-0.58754 -6.08219,-4.00145 -5.49367,-7.62368 0.58802,-3.62272 4.00144,-6.08268 7.62317,-5.49465 3.62223,0.58852 6.08318,4.00193 5.49417,7.62465 -0.58753,3.62223 -4.00144,6.0822 -7.62367,5.49368 z m 18.05943,7.42027 c -0.58753,3.62223 -4.00144,6.0817 -7.62367,5.49417 -3.62174,-0.58852 -6.08219,-4.00145 -5.49367,-7.62417 0.58803,-3.62223 4.00144,-6.08219 7.62367,-5.49367 3.62272,0.58803 6.08219,4.00095 5.49367,7.62367 z m 12.80413,-8.9716 c -0.58803,3.62272 -4.00145,6.08268 -7.62367,5.49416 -3.62273,-0.58803 -6.08269,-4.00144 -5.49466,-7.62416 0.58852,-3.62223 4.00243,-6.08219 7.62465,-5.49417 3.62223,0.58803 6.0817,4.00145 5.49368,7.62417 z"
   id="path889"
   inkscape:connector-curvature="0"
   style="fill:#FFF;stroke-width:0.49248526" />
</svg>
