<?xml version="1.0"?>
<svg xmlns="http://www.w3.org/2000/svg" xmlns:xlink="http://www.w3.org/1999/xlink" version="1.1" id="Capa_1" x="0px" y="0px" viewBox="0 0 454.656 454.656" style="enable-background:new 0 0 454.656 454.656;" xml:space="preserve" width="512px" height="512px"><g><g>
	<g>
		<path d="M227.328,0c-46.08,0-82.944,37.376-82.944,82.944v143.872c0,45.568,36.864,82.944,82.944,82.944    s82.944-37.376,82.944-82.944V82.944C310.272,36.864,272.896,0,227.328,0z M227.328,242.688c-11.264,0-20.48-9.216-20.48-20.48    c0-11.264,9.216-20.48,20.48-20.48c11.264,0,20.48,9.216,20.48,20.48C247.808,233.472,238.592,242.688,227.328,242.688z     M227.328,176.128c-11.264,0-20.48-9.216-20.48-20.48c0-11.264,9.216-20.48,20.48-20.48c11.264,0,20.48,9.216,20.48,20.48    C247.808,166.912,238.592,176.128,227.328,176.128z M227.328,109.568c-11.264,0-20.48-9.216-20.48-20.48    c0-11.264,9.216-20.48,20.48-20.48c11.264,0,20.48,9.216,20.48,20.48C247.808,100.352,238.592,109.568,227.328,109.568z" data-original="#000000" class="active-path" data-old_color="#000000" fill="#FFFFFF"/>
	</g>
</g><g>
	<g>
		<path d="M351.232,156.16c-7.168,0-12.8,5.632-12.8,12.8v57.856c0,61.44-49.664,111.104-111.104,111.104    s-111.104-49.664-111.104-111.104V168.96c0-7.168-5.632-12.8-12.8-12.8c-7.168,0-12.8,5.632-12.8,12.8v57.856    c0,70.656,53.76,129.536,123.904,136.192v66.048H166.4c-7.168,0-12.8,5.632-12.8,12.8c0,7.168,5.632,12.8,12.8,12.8h121.856    c7.168,0,12.8-5.632,12.8-12.8c0-7.168-5.632-12.8-12.8-12.8h-48.128v-66.048c70.144-6.656,123.904-65.536,123.904-136.192V168.96    C364.032,161.792,358.4,156.16,351.232,156.16z" data-original="#000000" class="active-path" data-old_color="#000000" fill="#FFFFFF"/>
	</g>
</g></g> </svg>
