<?xml version="1.0"?>
<svg xmlns="http://www.w3.org/2000/svg" xmlns:xlink="http://www.w3.org/1999/xlink" version="1.1" id="Capa_1" x="0px" y="0px" viewBox="0 0 512 512" style="enable-background:new 0 0 512 512;" xml:space="preserve" width="512px" height="512px" class=""><g transform="matrix(1 0 0 1 0 0)"><g>
	<g>
		<path d="M501.333,213.333H10.667C4.267,213.333,0,217.6,0,224v149.333c0,29.867,23.467,53.333,53.333,53.333h405.333    c29.867,0,53.333-23.467,53.333-53.333V224C512,217.6,507.733,213.333,501.333,213.333z M74.667,298.667H160    c6.4,0,10.667,4.267,10.667,10.667c0,6.4-4.267,10.667-10.667,10.667H74.667C68.267,320,64,315.733,64,309.333    C64,302.933,68.267,298.667,74.667,298.667z M224,362.667H74.667C68.267,362.667,64,358.4,64,352    c0-6.4,4.267-10.667,10.667-10.667H224c6.4,0,10.667,4.267,10.667,10.667C234.667,358.4,230.4,362.667,224,362.667z     M405.333,362.667c-8.533,0-14.933-2.133-21.333-6.4c-6.4,4.267-12.8,6.4-21.333,6.4C339.2,362.667,320,343.467,320,320    s19.2-42.667,42.667-42.667c8.533,0,14.933,2.133,21.333,6.4c6.4-4.267,12.8-6.4,21.333-6.4C428.8,277.333,448,296.533,448,320    S428.8,362.667,405.333,362.667z" data-original="#000000" class="active-path" data-old_color="#000000" fill="#FFFFFF"/>
	</g>
</g><g>
	<g>
		<path d="M458.667,85.333H53.333C23.467,85.333,0,108.8,0,138.667V160c0,6.4,4.267,10.667,10.667,10.667h490.667    c6.4,0,10.667-4.267,10.667-10.667v-21.333C512,108.8,488.533,85.333,458.667,85.333z" data-original="#000000" class="active-path" data-old_color="#000000" fill="#FFFFFF"/>
	</g>
</g></g> </svg>
