<?xml version="1.0" ?><!DOCTYPE svg  PUBLIC '-//W3C//DTD SVG 1.1//EN'
        'http://www.w3.org/Graphics/SVG/1.1/DTD/svg11.dtd'><svg enable-background="new 0 0 48 48" height="48px"
                                                                id="Layer_3" version="1.1" viewBox="0 0 48 48"
                                                                width="48px" xml:space="preserve"
                                                                xmlns="http://www.w3.org/2000/svg"
                                                                xmlns:xlink="http://www.w3.org/1999/xlink"><g><path
        d="M16.601,18.578c0.106,0,0.21-0.012,0.316-0.016c-0.085-0.597-0.145-1.201-0.145-1.822   c0-5.098,3-9.484,7.324-11.523C22.551,2.691,19.777,1,16.601,1c-4.854,0-8.789,3.935-8.789,8.789   C7.812,14.643,11.746,18.578,16.601,18.578z" fill="#FFF"/><circle cx="29.476" cy="16.74" fill="#FFF" r="9.763"/><path d="M37.993,26.365c-2.27,2.011-5.247,3.241-8.518,3.241c-3.256,0-6.22-1.219-8.487-3.212   c-5.913,3.227-9.953,9.7-9.953,17.165c0,1.176,0.105,2.323,0.297,3.44h36.37C47.895,45.883,48,44.735,48,43.56   C48,36.072,43.937,29.582,37.993,26.365z" fill="#FFF"/><path d="M19.162,24.205c-0.628-0.886-1.153-1.849-1.542-2.881c-0.336,0.029-0.676,0.048-1.02,0.048   c-2.932,0-5.6-1.097-7.641-2.892C3.637,21.385,0,27.213,0,33.934c0,1.058,0.095,2.092,0.267,3.098h9.062   C10.636,31.484,14.27,26.838,19.162,24.205z" fill="#FFF"/></g></svg>
