<?xml version="1.0" encoding="utf-8"?>
<!-- Generator: Adobe Illustrator 24.3.0, SVG Export Plug-In . SVG Version: 6.00 Build 0)  -->
<svg version="1.1"
	 id="Layer_1" inkscape:version="0.92.4 (5da689c313, 2019-01-14)" xmlns:cc="http://creativecommons.org/ns#" xmlns:dc="http://purl.org/dc/elements/1.1/" xmlns:inkscape="http://www.inkscape.org/namespaces/inkscape" xmlns:rdf="http://www.w3.org/1999/02/22-rdf-syntax-ns#" xmlns:sodipodi="http://sodipodi.sourceforge.net/DTD/sodipodi-0.dtd" xmlns:svg="http://www.w3.org/2000/svg"
	 xmlns="http://www.w3.org/2000/svg" xmlns:xlink="http://www.w3.org/1999/xlink" x="0px" y="0px" viewBox="0 0 250.2 239.7"
	 style="enable-background:new 0 0 250.2 239.7;" xml:space="preserve">
<style type="text/css">
	.st0{fill:#7A80BE;}
</style>
<sodipodi:namedview  bordercolor="#666666" borderopacity="1" fit-margin-bottom="0.1" fit-margin-left="0.1" fit-margin-right="0.1" fit-margin-top="0.1" gridtolerance="10" guidetolerance="10" id="namedview892" inkscape:current-layer="Layer_1" inkscape:cx="123.72741" inkscape:cy="136.15198" inkscape:pageopacity="0" inkscape:pageshadow="2" inkscape:window-height="1017" inkscape:window-maximized="1" inkscape:window-width="1920" inkscape:window-x="-8" inkscape:window-y="-8" inkscape:zoom="0.39645207" objecttolerance="10" pagecolor="#ffffff" showgrid="false">
	</sodipodi:namedview>
<path id="path885" inkscape:connector-curvature="0" class="st0" d="M116.4,143.4c0,0,6.9-2.7,11.4,1.1c0,0-2.7,5.1-6.3,5.4
	C117.8,150.2,116.4,143.4,116.4,143.4z"/>
<path id="path887" inkscape:connector-curvature="0" class="st0" d="M127.9,167.6c-0.3-0.2-0.6-0.4-0.9-0.6
	c-0.3-0.2-0.6-0.4-0.9-0.7c-0.6-0.5-1.1-0.9-1.7-1.4c-0.5-0.5-1.1-1-1.6-1.5l-0.4-0.4c-0.1-0.1-0.3-0.2-0.4-0.3
	c-0.1-0.1-0.3-0.2-0.4-0.3c-0.1-0.1-0.2-0.2-0.3-0.2l0.6,0.1l-0.3,0.1l-0.3,0.1c-0.1,0-0.2,0.1-0.4,0.2c-0.1,0.1-0.2,0.1-0.4,0.2
	c-0.2,0.1-0.5,0.3-0.7,0.4c-0.2,0.1-0.5,0.3-0.7,0.4c-0.1,0.1-0.3,0.1-0.4,0.2l-0.4,0.2c-0.2,0.2-0.5,0.3-0.7,0.5
	c-0.2,0.2-0.5,0.3-0.7,0.5c-0.3,0.2-0.5,0.3-0.8,0.5c0.3-0.6,0.6-1.1,0.9-1.6c0.2-0.3,0.4-0.5,0.6-0.7l0.3-0.4
	c0.1-0.1,0.2-0.2,0.3-0.3c0.2-0.2,0.5-0.4,0.7-0.7c0.3-0.2,0.5-0.4,0.8-0.6c0.1-0.1,0.3-0.2,0.4-0.3c0.1-0.1,0.3-0.2,0.4-0.2
	l0.5-0.2l0.3-0.1l0.1,0l0.2,0l0.3-0.1l0.3,0.2c0.2,0.1,0.4,0.3,0.6,0.4c0.2,0.1,0.3,0.3,0.5,0.4c0.3,0.3,0.5,0.5,0.8,0.8
	c0.3,0.3,0.5,0.6,0.7,0.8c0.2,0.3,0.5,0.6,0.7,0.9c0.4,0.6,0.8,1.2,1.2,1.8c0.2,0.3,0.4,0.6,0.5,1
	C127.5,167,127.7,167.3,127.9,167.6L127.9,167.6z"/>
<g>
	<g>
		<path class="st0" d="M84.1,120.9L84.1,120.9c-1.3-0.2-2.3-1.3-2.1-2.7l3-25.6c0.2-1.3,1.3-2.3,2.7-2.1h0c1.3,0.2,2.3,1.3,2.1,2.7
			l-3,25.6C86.6,120.2,85.4,121.1,84.1,120.9z"/>
		<path class="st0" d="M76.3,122.5L76.3,122.5c-1.3-0.2-2.3-1.3-2.1-2.7l3.6-30.5c0.2-1.3,1.3-2.3,2.7-2.1l0,0
			c1.3,0.2,2.3,1.3,2.1,2.7L79,120.4C78.8,121.8,77.6,122.7,76.3,122.5z"/>
		<path class="st0" d="M69.8,114.1L69.8,114.1c-1.3-0.2-2.3-1.3-2.1-2.7L69.5,96c0.2-1.3,1.3-2.3,2.7-2.1l0,0
			c1.3,0.2,2.3,1.3,2.1,2.7L72.4,112C72.3,113.3,71.1,114.2,69.8,114.1z"/>
		<path class="st0" d="M90.9,127.6L90.9,127.6c-1.3-0.2-2.3-1.3-2.1-2.7l4.4-37.1c0.2-1.3,1.3-2.3,2.7-2.1l0,0
			c1.3,0.2,2.3,1.3,2.1,2.7l-4.4,37.1C93.4,126.8,92.2,127.8,90.9,127.6z"/>
		<path class="st0" d="M97.8,133.1L97.8,133.1c-1.3-0.2-2.3-1.3-2.1-2.7l5.5-46.3c0.2-1.3,1.3-2.3,2.7-2.1h0
			c1.3,0.2,2.3,1.3,2.1,2.7l-5.5,46.3C100.3,132.3,99.1,133.2,97.8,133.1z"/>
		<path class="st0" d="M106.2,126.1L106.2,126.1c-1.3-0.2-2.3-1.3-2.1-2.7l3.6-30.5c0.2-1.3,1.3-2.3,2.7-2.1h0
			c1.3,0.2,2.3,1.3,2.1,2.7l-3.6,30.5C108.7,125.3,107.5,126.2,106.2,126.1z"/>
		<path class="st0" d="M114.6,118.7L114.6,118.7c-1.3-0.2-2.3-1.3-2.1-2.7l1.7-14c0.2-1.3,1.3-2.3,2.7-2.1l0,0
			c1.3,0.2,2.3,1.3,2.1,2.7l-1.7,14C117.1,117.9,115.9,118.9,114.6,118.7z"/>
	</g>
	<g>
		<path class="st0" d="M166.5,130.7L166.5,130.7c1.3,0.2,2.5-0.8,2.7-2.1l3-25.6c0.2-1.3-0.8-2.5-2.1-2.7v0
			c-1.3-0.2-2.5,0.8-2.7,2.1l-3,25.6C164.2,129.4,165.2,130.6,166.5,130.7z"/>
		<path class="st0" d="M173.7,134.1L173.7,134.1c1.3,0.2,2.5-0.8,2.7-2.1l3.6-30.5c0.2-1.3-0.8-2.5-2.1-2.7h0
			c-1.3-0.2-2.5,0.8-2.7,2.1l-3.6,30.5C171.4,132.8,172.3,134,173.7,134.1z"/>
		<path class="st0" d="M182,127.4L182,127.4c1.3,0.2,2.5-0.8,2.7-2.1l1.8-15.4c0.2-1.3-0.8-2.5-2.1-2.7h0c-1.3-0.2-2.5,0.8-2.7,2.1
			l-1.8,15.4C179.8,126.1,180.7,127.3,182,127.4z"/>
		<path class="st0" d="M158.3,135.6L158.3,135.6c1.3,0.2,2.5-0.8,2.7-2.1l4.4-37.1c0.2-1.3-0.8-2.5-2.1-2.7h0
			c-1.3-0.2-2.5,0.8-2.7,2.1l-4.4,37.1C156.1,134.3,157,135.5,158.3,135.6z"/>
		<path class="st0" d="M150.3,139.3L150.3,139.3c1.3,0.2,2.5-0.8,2.7-2.1l5.5-46.3c0.2-1.3-0.8-2.5-2.1-2.7l0,0
			c-1.3-0.2-2.5,0.8-2.7,2.1l-5.5,46.3C148.1,138,149,139.2,150.3,139.3z"/>
		<path class="st0" d="M143.8,130.6L143.8,130.6c1.3,0.2,2.5-0.8,2.7-2.1l3.6-30.5c0.2-1.3-0.8-2.5-2.1-2.7l0,0
			c-1.3-0.2-2.5,0.8-2.7,2.1l-3.6,30.5C141.5,129.2,142.5,130.4,143.8,130.6z"/>
		<path class="st0" d="M137.3,121.4L137.3,121.4c1.3,0.2,2.5-0.8,2.7-2.1l1.7-14c0.2-1.3-0.8-2.5-2.1-2.7l0,0
			c-1.3-0.2-2.5,0.8-2.7,2.1l-1.7,14C135.1,120.1,136,121.3,137.3,121.4z"/>
	</g>
	<path class="st0" d="M132.4,111.3L132.4,111.3c-0.2,1.3-1.3,2.3-2.7,2.1l-6.5-0.8c-1.3-0.2-2.3-1.3-2.1-2.7v0
		c0.2-1.3,1.3-2.3,2.7-2.1l6.5,0.8C131.6,108.8,132.6,110,132.4,111.3z"/>
</g>
<circle class="st0" cx="40.9" cy="83.1" r="2.3"/>
<circle class="st0" cx="216.9" cy="90.3" r="2.3"/>
<path class="st0" d="M250,23.1c-0.9-12.8-11.6-23-24.7-23h-57H80.1h-57v0.1c-12.8,0.9-23,11.6-23,24.7v46.6v98.6v46.6h0.1
	c0.9,12.8,11.6,23,24.7,23h45.2c-3-8.2-8.7-16.9-15.1-26.4c-10.7-16-22.9-34.2-28.3-58.5c-8.1-36.2,3.7-60.2,9.2-68.9
	c-1.5-1-2.4-2.6-2.6-4.5c-0.2-3.3,2.4-6.2,5.8-6.4c1.8-0.1,3.4,0.5,4.6,1.6c0.5-0.3,1.1-0.4,1.7-0.5c2.2-0.1,4.1,1.5,4.2,3.6
	c0.1,2.1-1.5,4-3.7,4.1c-0.3,0-0.6,0-0.9-0.1c-1,1.8-2.8,3.1-5.1,3.2c-0.3,0-0.7,0-1,0c-5,7.8-17.1,31.6-9.2,67.1
	c5.3,23.8,17.3,41.7,27.9,57.5c6.8,10.1,12.8,19.2,15.8,28.1h4.8c7.8-10.3,23-26,43.3-25.8c14.2,0.2,38-3,59.2-10.3
	c17.1-6,38.2-16.7,41.1-33.9c4.2-25.5-1.3-61.7-3.8-75.5c-2-0.1-3.7-1.2-4.7-2.7c-2.9,1.2-6.5,1.7-11.1,1.4
	c10.4,21.9,12,46.9,0.3,66C177.2,200,128.6,189,98.5,184.1c-30.1-4.9-74.3-24.3-53.5-87.5C47.8,88.2,51.5,81,55.8,75
	c-8-3.4-24.7-11.9-20.1-22.6c6-13.9,13.6-26.2,28.2-21.2c12,4.1,15.9,15.6,17.3,21.8c26.8-14.1,56.7-10.3,56.7-10.3
	c18.1,2.4,34.2,11.8,46.6,24.7c1.2-6.8,4.7-16.4,15-17.6c16.2-2,25.2,15.3,24.5,24.5c-0.2,2.9-0.8,6-2.1,9c1.5,1,2.5,2.7,2.6,4.6
	c0.2,2.5-1.3,4.8-3.5,5.8c2.5,14,8.1,50.6,3.8,76.5c-5.7,34-75.3,47-103.4,46.8c-17.7-0.2-31.6,13.1-39.4,22.8h58.7l0,0h31.4h0.8
	h7.5h2.7h9h3.2h31.7v-0.1c12.8-0.9,23-11.6,23-24.7v-1.7h0v-36.1v-8.8V69.7L250,23.1L250,23.1z"/>
</svg>
