<?xml version="1.0"?>
<svg xmlns="http://www.w3.org/2000/svg" id="Capa_1" enable-background="new 0 0 512 512" height="512px" viewBox="0 0 512 512" width="512px" class=""><g><path d="m391 0c-66.167 0-120 53.833-120 120s53.833 120 120 120 121-53.833 121-120-54.833-120-121-120zm0 187.5c-8.284 0-15-6.716-15-15 0-8.286 6.716-15 15-15s15 6.714 15 15c0 8.284-6.716 15-15 15zm15-60c0 8.291-6.709 15-15 15s-15-6.709-15-15v-60c0-8.291 6.709-15 15-15s15 6.709 15 15z" data-original="#000000" class="active-path" data-old_color="#000000" fill="#FFFFFF"/><path d="m15 452h361c8.291 0 15-6.709 15-15s-6.709-15-15-15c-24.814 0-45-20.186-45-45v-119.715c-50.354-22.103-85.811-71.122-89.134-128.723-2.159-.786-4.482-1.179-6.683-1.875 3.592-6.462 5.817-13.784 5.817-21.687 0-24.814-20.186-45-45-45s-45 20.186-45 45c0 7.831 2.19 15.09 5.722 21.511-55.21 16.941-95.722 67.799-95.722 128.489v122c0 24.814-21.186 45-46 45-8.291 0-15 6.709-15 15s6.709 15 15 15zm166-347c0-8.276 6.724-15 15-15s15 6.724 15 15-6.724 15-15 15-15-6.724-15-15z" data-original="#000000" class="active-path" data-old_color="#000000" fill="#FFFFFF"/><path d="m238.237 482h-84.474c6.213 17.422 22.707 30 42.237 30s36.024-12.578 42.237-30z" data-original="#000000" class="active-path" data-old_color="#000000" fill="#FFFFFF"/></g> </svg>
