<?xml version="1.0" standalone="no"?>
<!DOCTYPE svg PUBLIC "-//W3C//DTD SVG 1.1//EN" "http://www.w3.org/Graphics/SVG/1.1/DTD/svg11.dtd" >
<svg xmlns="http://www.w3.org/2000/svg">
<metadata>Generated by IcoMoon</metadata>
<defs>
<font id="icomoon" horiz-adv-x="1024">
<font-face units-per-em="1024" ascent="960" descent="-64" />
<missing-glyph horiz-adv-x="1024" />
<glyph unicode="&#x20;" horiz-adv-x="512" d="" />
<glyph unicode="&#xe900;" glyph-name="account" d="M128 746.667v-597.333c0-47.147 38.187-85.333 85.333-85.333h597.333c47.147 0 85.333 38.187 85.333 85.333v597.333c0 47.147-38.187 85.333-85.333 85.333h-597.333c-47.147 0-85.333-38.187-85.333-85.333zM640 576c0-70.827-57.387-128-128-128s-128 57.173-128 128c0 70.613 57.387 128 128 128s128-57.387 128-128zM256 234.667c0 85.333 170.667 132.267 256 132.267s256-46.933 256-132.267v-42.667h-512v42.667z" />
<glyph unicode="&#xe901;" glyph-name="art" d="M1003.311 837.142c-1.915 4.848-6.329 8.259-11.504 8.892-5.16 0.631-10.276-1.617-13.303-5.86-17.97-25.196-41.552-33.594-68.869-43.32-22.026-7.846-44.804-15.953-69.421-33.627-34.815-24.994-50.74-59.065-42.799-91.357l-0.849-1.088c-14.538 21.090-30.356 40.596-47.049 58.014-78.099 81.491-187.228 130.484-299.414 134.412-4.942 0.173-9.965 0.261-14.929 0.261-125.269 0-245.171-56-328.96-153.636-83.35-97.132-120.293-223.574-101.353-346.906 1.583-10.309 3.565-20.725 5.895-30.965 30.806-135.595 109.489-238.745 215.875-282.992 26.224-10.909 52.676-16.437 78.611-16.437 64.436 0 120.718 34.464 154.418 94.555 12.81 22.865 21.076 46.511 24.558 70.286 2.053 14.033 0.65 28.054-0.711 41.642-1.401 13.986-2.724 27.203-0.607 40.511 4.852 30.505 26.16 48.72 57.002 48.72 8.773 0 17.738-1.444 26.691-4.295-10.482-19.224-20.002-37.581-28.32-54.596-17.629-36.059-29.789-65.922-36.154-88.75-3.923-14.078-14.346-51.491 11.070-69.132 8.071-5.601 18.305-7.578 28.955-5.597 9.598 1.783 38.802 7.209 121.789 101.683 22.273 25.352 46.274 54.691 71.36 87.218 64.4 21.69 114.517 75.667 127.775 137.692 3.319 15.505 4.703 32.098 4.113 49.334 24.112 37.264 45.261 72.033 66.543 109.411 0.408 0.721 0.811 1.489 1.209 2.276 30.889 8.46 57.493 32.499 73.11 66.114 22.799 49.061 21.118 112.115-4.734 177.537zM655.158 604.826c-11.172-17.743-30.375-28.336-51.375-28.336-11.402 0-22.555 3.226-32.25 9.332-13.706 8.633-23.238 22.086-26.824 37.88s-0.818 32.044 7.818 45.752c11.174 17.743 30.38 28.336 51.38 28.336 11.404 0 22.555-3.226 32.248-9.335 13.706-8.628 23.235-22.081 26.824-37.877 3.586-15.797 0.811-32.044-7.82-45.752zM733.873 494.948c30.659 45.174 63.082 90.077 93.879 130.019 4.992-4.509 10.575-8.913 16.622-13.109 10.020-6.953 20.5-12.329 31.205-16.010-26.001-44.465-53.959-88.517-87.809-138.375-55.618-81.949-113.447-158.071-162.838-214.346-27.587-31.432-51.73-55.701-70.334-70.732 7.18 22.97 20.903 54.494 40.001 91.846 34.151 66.792 83.613 148.725 139.274 230.707zM195.577 495.337c-11.404 0-22.557 3.226-32.255 9.335-13.706 8.631-23.233 22.078-26.822 37.877-3.589 15.797-0.811 32.046 7.825 45.754 11.167 17.74 30.373 28.334 51.37 28.334 11.407 0 22.56-3.226 32.255-9.335 28.294-17.821 36.818-55.338 19.009-83.627-11.179-17.745-30.387-28.339-51.382-28.339zM132.006 361.797c11.172 17.745 30.375 28.339 51.375 28.339 11.402 0 22.552-3.229 32.252-9.335 13.706-8.631 23.233-22.081 26.822-37.877 3.591-15.792 0.813-32.039-7.825-45.752-11.167-17.738-30.373-28.334-51.37-28.334-11.404 0-22.56 3.226-32.259 9.335-13.706 8.633-23.23 22.081-26.817 37.877-3.584 15.792-0.804 32.041 7.822 45.747zM326.222 721.973c11.172 17.743 30.377 28.336 51.375 28.336 11.4 0 22.552-3.226 32.248-9.332 28.296-17.816 36.82-55.336 19.009-83.63-11.177-17.745-30.382-28.339-51.38-28.339-11.402 0-22.555 3.226-32.25 9.335-13.704 8.628-23.228 22.078-26.817 37.877-3.594 15.794-0.815 32.041 7.815 45.752z" />
<glyph unicode="&#xe902;" glyph-name="at" d="M742.992-11.040c-88.272-39.728-164.784-52.96-269.248-52.96-244.224 0-459.040 175.088-459.040 463.44 0 300.144 217.744 560.56 550.272 560.56 258.944 0 444.32-178.032 444.32-425.2 0-214.8-120.64-350.16-279.536-350.16-69.152 0-119.168 35.312-126.528 113.296h-2.944c-45.6-75.040-111.808-113.296-189.792-113.296-95.632 0-164.784 70.624-164.784 191.28 0 179.488 132.416 342.8 344.272 342.8 64.736 0 138.288-16.192 175.088-36.784l-44.128-272.192c-14.704-86.784-4.416-126.528 36.784-127.984 63.264-1.472 142.704 79.456 142.704 248.64 0 191.264-123.584 339.872-351.648 339.872-225.088 0-422.256-176.56-422.256-457.568 0-245.696 157.424-385.472 376.656-385.472 75.040 0 154.496 16.176 213.328 47.088l26.48-85.36zM612.048 596.592c-11.776 2.944-26.496 5.888-45.616 5.888-97.088 0-173.616-95.632-173.616-208.912 0-55.904 25.024-91.216 73.568-91.216 54.432 0 111.824 69.152 125.056 154.48l20.608 139.76z" />
<glyph unicode="&#xe903;" glyph-name="controller" d="M990.098 619.15h-375.698v30.567c0 18.719-15.183 33.902-33.902 33.902h-34.365v82.481h-68.267v-82.483h-34.365c-18.719 0-33.902-15.183-33.902-33.902v-30.567h-375.698c-18.719 0.002-33.902-15.181-33.902-33.896v-421.452c0-18.715 15.183-33.902 33.902-33.902h956.196c18.719 0 33.902 15.187 33.902 33.902v421.452c0 18.715-15.183 33.898-33.902 33.898zM321.735 344.202c0-6.786-5.617-12.285-12.534-12.285h-60.116v-61.601c0-6.781-5.617-12.285-12.534-12.285h-42.533c-6.918 0-12.534 5.502-12.534 12.285v61.601h-60.116c-6.918 0-12.534 5.5-12.534 12.285v41.68c0 6.786 5.615 12.285 12.534 12.285h60.116v61.616c0 6.781 5.615 12.281 12.534 12.281h42.533c6.916 0 12.534-5.5 12.534-12.281v-61.616h60.116c6.916 0 12.534-5.5 12.534-12.285v-41.68zM737.601 223.402c-40.068 0-72.534 32.468-72.534 72.534s32.464 72.534 72.534 72.534c40.066 0 72.534-32.468 72.534-72.534-0.002-40.068-32.468-72.534-72.534-72.534zM873.25 380.586c-40.066 0-72.534 32.464-72.534 72.534 0 40.066 32.468 72.534 72.534 72.534s72.534-32.468 72.534-72.534c0-40.070-32.468-72.534-72.534-72.534z" />
<glyph unicode="&#xe904;" glyph-name="friends" d="M354.155 563.669c2.261 0 4.48 0.256 6.741 0.341-1.813 12.736-3.093 25.621-3.093 38.869 0 108.757 64 202.325 156.245 245.824-32.96 53.888-92.139 89.963-159.893 89.963-103.552 0-187.499-83.947-187.499-187.499s83.925-187.499 187.499-187.499zM837.099 602.88c0-115.028-93.249-208.277-208.277-208.277s-208.277 93.249-208.277 208.277c0 115.028 93.249 208.277 208.277 208.277s208.277-93.249 208.277-208.277zM810.517 397.547c-48.427-42.901-111.936-69.141-181.717-69.141-69.461 0-132.693 26.005-181.056 68.523-126.144-68.843-212.331-206.933-212.331-366.187 0-25.088 2.24-49.557 6.336-73.387h775.893c4.117 23.808 6.357 48.299 6.357 73.365 0 159.744-86.677 298.197-213.483 366.827zM408.789 443.627c-13.397 18.901-24.597 39.445-32.896 61.461-7.168-0.619-14.421-1.024-21.76-1.024-62.549 0-119.467 23.403-163.008 61.696-113.536-61.973-191.125-186.304-191.125-329.685 0-22.571 2.027-44.629 5.696-66.091h193.323c27.883 118.357 105.408 217.472 209.771 273.643z" />
<glyph unicode="&#xe905;" glyph-name="gallery" d="M213.333 490.667c47.061 0 85.333 38.272 85.333 85.333s-38.272 85.333-85.333 85.333-85.333-38.272-85.333-85.333 38.272-85.333 85.333-85.333zM896 746.667h-451.669l-72.789 72.832c-8.021 8.021-18.859 12.501-30.208 12.501h-213.333c-70.571 0-128-57.429-128-128v-512c0-70.571 57.429-128 128-128h768c70.571 0 128 57.429 128 128v426.667c0 70.571-57.429 128-128 128zM128 746.667h195.669l72.832-72.832c7.979-8.021 18.859-12.501 30.165-12.501h469.333c23.509 0 42.667-19.157 42.667-42.667v-296.064l-224.427 224.427c-29.184 29.184-76.672 29.184-105.813 0l-203.093-203.093-53.76 53.76c-29.184 29.184-76.672 29.184-105.813 0l-160.427-160.427v466.731c0 23.509 19.157 42.667 42.667 42.667z" />
<glyph unicode="&#xe906;" glyph-name="gift" d="M957.218 760.548h-74.538c9.832 15.56 16.32 33.026 18.17 51.498 5.91 59.034-25.18 111.954-78.11 135.416-48.652 21.566-103.326 12.75-142.696-22.958l-94.12-85.3c-18.33 20.048-44.68 32.648-73.924 32.648-29.296 0-55.688-12.64-74.022-32.75l-94.24 85.412c-39.434 35.708-94.086 44.49-142.716 22.936-52.916-23.464-84.012-76.402-78.084-135.434 1.854-18.458 8.338-35.916 18.168-51.468h-74.324c-36.884 0-66.782-29.9-66.782-66.782v-100.174c0-18.44 14.95-33.392 33.392-33.392h957.218c18.44 0 33.392 14.95 33.392 33.392v100.174c-0.002 36.882-29.9 66.782-66.784 66.782zM411.826 771.678v-11.13h-157.086c-41.504 0-74.168 38.692-63.802 81.904 4.566 19.030 18.302 35.252 36.068 43.464 24.396 11.276 51.42 7.656 71.91-10.89l112.938-102.364c-0.006-0.33-0.028-0.654-0.028-0.984zM834.588 820.912c-2.488-34.706-33.838-60.368-68.632-60.368h-153.782v11.13c0 0.394-0.024 0.784-0.028 1.178 25.584 23.192 81.086 73.496 111.188 100.782 17.108 15.506 41.046 22.744 63.174 16.144 31.754-9.472 50.402-36.476 48.080-68.866zM66.782 493.418v-489.74c0-36.884 29.898-66.782 66.782-66.782h311.652v556.522h-378.434zM578.782 493.418v-556.522h311.652c36.884 0 66.782 29.898 66.782 66.782v489.74h-378.434z" />
<glyph unicode="&#xe907;" glyph-name="language_translate" d="M549.12 316.8l-108.373 107.093 1.28 1.28c74.24 82.773 127.147 177.92 158.293 278.613h125.013v85.547h-298.667v85.333h-85.333v-85.333h-298.667v-84.907h476.587c-28.8-82.347-73.813-160.427-135.253-228.693-39.68 44.16-72.533 92.16-98.56 142.933h-85.333c31.147-69.547 73.813-135.253 127.147-194.56l-216.96-214.4 60.373-60.373 213.333 213.333 132.693-132.693 32.427 86.827zM789.333 533.333h-85.333l-192-512h85.333l48 128h202.667l48-128h85.333l-192 512zM677.333 234.667l69.333 184.96 69.333-184.96h-138.667z" />
<glyph unicode="&#xe908;" glyph-name="logo" d="M982.704 873.080c-3.419 48.361-43.706 86.544-92.939 86.544l-761.434-0.263c-48.361-3.417-86.544-43.708-86.544-92.939v-722.315h0.263c3.417-48.359 43.706-86.544 92.939-86.544l630.157-0.004-27.464 94.244 245.281-216.573v937.851zM884.765 680.435c-2.26-31.625-16.79-74.483-82.409-70.336 39.16-82.556 45.070-176.433 0.972-248.381-94.869-154.785-277.942-113.177-391.116-94.867-113.174 18.307-279.607 91.535-201.385 329.535 10.437 31.753 24.333 58.605 40.539 81.371-30.271 12.841-92.803 44.928-75.603 85.061 22.468 52.425 51.178 98.612 106.101 79.888 45.224-15.417 59.971-58.744 65.167-81.935 100.948 53.119 213.306 38.663 213.306 38.663 68.111-9.007 128.778-44.307 175.602-93.046 4.426 25.625 17.577 61.655 56.458 66.416 61.164 7.49 94.867-57.418 92.369-92.369zM479.458 420.186c0 0 25.799 9.986 42.857-4.159 0 0-9.984-19.139-23.715-20.387-13.731-1.25-19.141 24.546-19.141 24.546zM522.73 328.862c-1.22 0.758-2.353 1.583-3.486 2.408-1.107 0.845-2.21 1.689-3.287 2.553-2.141 1.739-4.214 3.525-6.22 5.353-2.008 1.817-3.975 3.673-5.898 5.49l-1.444 1.34c-0.471 0.464-0.944 0.892-1.417 1.305-0.476 0.441-0.942 0.825-1.378 1.19-0.482 0.439-0.795 0.599-1.137 0.875l2.305-0.434-0.972-0.237-1.316-0.454c-0.439-0.146-0.896-0.386-1.35-0.565-0.452-0.2-0.918-0.365-1.368-0.597-0.899-0.484-1.817-0.946-2.744-1.417-0.91-0.519-1.791-1.105-2.727-1.622-0.456-0.278-0.946-0.508-1.381-0.829l-1.352-0.907c-0.914-0.597-1.83-1.205-2.803-1.772-0.925-0.621-1.791-1.316-2.763-1.925-0.944-0.636-1.917-1.259-2.954-1.847 0.957 2.121 2.114 4.142 3.354 6.131 0.669 0.953 1.398 1.865 2.125 2.787l1.112 1.372c0.369 0.462 0.823 0.844 1.237 1.272 0.84 0.842 1.715 1.65 2.599 2.46 0.966 0.729 1.937 1.461 2.931 2.175 0.508 0.343 1.072 0.636 1.607 0.955 0.554 0.3 1.061 0.649 1.669 0.897l1.808 0.769 1.016 0.332 0.515 0.154 1.962 0.395 1.081-0.68c0.784-0.495 1.641-1.046 2.179-1.518 0.634-0.488 1.201-0.992 1.715-1.491 1.096-0.996 2.062-2.006 3.018-3.050 0.962-1.025 1.86-2.095 2.746-3.163 0.881-1.075 1.734-2.167 2.559-3.282 1.661-2.216 3.187-4.531 4.62-6.914 0.71-1.198 1.379-2.427 2.047-3.656 0.634-1.259 1.266-2.516 1.791-3.855zM766.778 547.686c-12.146 66.578-66.691 112.844-116.685 92.905-40.439-16.125-85.967-19.186-101.905-19.768-0.004 0-0.004 0-0.008 0-1.392-0.084-2.707-0.111-3.979-0.113-1.22-0.023-1.904-0.023-1.904-0.023l-0.352 0.058c-10.967 0.365-16.865 3.423-16.865 3.423v0c-12.793 4.672-57.515 22.271-92.384 51.723-41.119 34.73-107.5 8.1-140.086-51.215-32.583-59.321-14.564-178.711 34.326-191.747 40.669-10.852 102.752 57.758 156.811 67.249l-0.004 0.008c0 0 24.863 5.965 54.050-6.296 4.706-1.808 9.307-4.211 13.809-7.099 0.058-0.034 0.115-0.067 0.172-0.102l-0.004-0.002c45.541-29.329 81.434-107.562 121.777-110.035 50.501-3.104 105.376 104.452 93.232 171.035zM444.478 552.197c-1.754-10.809-11.938-18.146-22.746-16.392l-26.089 4.237-4.237-26.090c-1.756-10.811-11.938-18.148-22.746-16.394-10.809 1.756-18.148 11.938-16.392 22.747l4.237 26.090-26.090 4.237c-10.807 1.754-18.148 11.936-16.392 22.746 1.754 10.807 11.936 18.146 22.746 16.39l26.090-4.237 4.237 26.090c1.754 10.807 11.936 18.146 22.747 16.39 10.809-1.756 18.146-11.936 16.39-22.744l-4.237-26.092 26.090-4.237c10.807-1.752 18.146-11.933 16.39-22.742zM646.413 564.838c2.216 13.639 15.066 22.9 28.703 20.684 13.638-2.214 22.898-15.064 20.682-28.703-2.212-13.637-15.064-22.9-28.701-20.684-13.635 2.214-22.896 15.064-20.684 28.703zM613.943 499.338c-13.637 2.212-22.898 15.064-20.682 28.701 2.214 13.638 15.064 22.9 28.699 20.686 13.637-2.216 22.901-15.066 20.684-28.705-2.212-13.637-15.064-22.898-28.701-20.682zM681.931 471.403c-2.212-13.637-15.064-22.896-28.701-20.684-13.635 2.216-22.898 15.064-20.682 28.703 2.214 13.637 15.064 22.898 28.701 20.682 13.638-2.214 22.898-15.062 20.682-28.701zM730.135 505.178c-2.214-13.638-15.064-22.9-28.701-20.684-13.639 2.214-22.9 15.064-20.686 28.703 2.216 13.637 15.068 22.898 28.705 20.684s22.896-15.064 20.682-28.703z" />
<glyph unicode="&#xe909;" glyph-name="logo-sound-editor" d="M476.774 352.154c0 0 28.262 11.059 46.694-4.506 0 0-11.059-20.89-25.805-22.118-15.155-1.229-20.89 26.624-20.89 26.624zM523.878 253.030c-1.229 0.819-2.458 1.638-3.686 2.458s-2.458 1.638-3.686 2.867-4.506 3.686-6.963 5.734c-2.048 2.048-4.506 4.096-6.554 6.144l-1.638 1.638c-0.41 0.41-1.229 0.819-1.638 1.229s-1.229 0.819-1.638 1.229c-0.41 0.41-0.819 0.819-1.229 0.819l2.458-0.41-2.458-0.819c-0.41 0-0.819-0.41-1.638-0.819-0.41-0.41-0.819-0.41-1.638-0.819s-2.048-1.229-2.867-1.638c-0.819-0.41-2.048-1.229-2.867-1.638-0.41-0.41-1.229-0.41-1.638-0.819l-1.638-0.819c-0.819-0.819-2.048-1.229-2.867-2.048s-2.048-1.229-2.867-2.048c-1.229-0.819-2.048-1.229-3.277-2.048 1.229 2.458 2.458 4.506 3.686 6.554 0.819 1.229 1.638 2.048 2.458 2.867l1.229 1.638c0.41 0.41 0.819 0.819 1.229 1.229 0.819 0.819 2.048 1.638 2.867 2.867 1.229 0.819 2.048 1.638 3.277 2.458 0.41 0.41 1.229 0.819 1.638 1.229s1.229 0.819 1.638 0.819l2.048 0.819 1.229 0.41h1.229l1.229 0.41 1.229-0.819c0.819-0.41 1.638-1.229 2.458-1.638s1.229-1.229 2.048-1.638 2.048-2.048 3.277-3.277c1.229-1.229 2.048-2.458 2.867-3.277 0.819-1.229 2.048-2.458 2.867-3.686 1.638-2.458 3.277-4.915 4.915-7.373 0.819-1.229 1.638-2.458 2.048-4.096 1.229-1.229 2.048-2.458 2.867-3.686v0zM344.474 444.314v0c-5.325 0.819-9.421 5.325-8.602 11.059l12.288 104.858c0.819 5.325 5.325 9.421 11.059 8.602v0c5.325-0.819 9.421-5.325 8.602-11.059l-12.288-104.858c-0.819-5.734-5.734-9.421-11.059-8.602zM312.525 437.76v0c-5.325 0.819-9.421 5.325-8.602 11.059l14.746 124.928c0.819 5.325 5.325 9.421 11.059 8.602v0c5.325-0.819 9.421-5.325 8.602-11.059l-14.746-124.928c-0.819-5.734-5.734-9.421-11.059-8.602zM285.901 472.166v0c-5.325 0.819-9.421 5.325-8.602 11.059l7.373 63.078c0.819 5.325 5.325 9.421 11.059 8.602v0c5.325-0.819 9.421-5.325 8.602-11.059l-7.782-63.078c-0.41-5.325-5.325-9.011-10.65-8.602zM372.326 416.87v0c-5.325 0.819-9.421 5.325-8.602 11.059l18.022 151.962c0.819 5.325 5.325 9.421 11.059 8.602v0c5.325-0.819 9.421-5.325 8.602-11.059l-18.022-151.962c-0.819-5.325-5.734-9.421-11.059-8.602zM400.589 394.342v0c-5.325 0.819-9.421 5.325-8.602 11.059l22.528 189.645c0.819 5.325 5.325 9.421 11.059 8.602v0c5.325-0.819 9.421-5.325 8.602-11.059l-22.528-189.645c-0.819-5.325-5.734-9.011-11.059-8.602zM434.995 423.014v0c-5.325 0.819-9.421 5.325-8.602 11.059l14.746 124.928c0.819 5.325 5.325 9.421 11.059 8.602v0c5.325-0.819 9.421-5.325 8.602-11.059l-14.746-124.928c-0.819-5.325-5.734-9.011-11.059-8.602zM469.402 453.325v0c-5.325 0.819-9.421 5.325-8.602 11.059l6.963 57.344c0.819 5.325 5.325 9.421 11.059 8.602v0c5.325-0.819 9.421-5.325 8.602-11.059l-6.963-57.344c-0.819-5.325-5.734-9.421-11.059-8.602zM681.984 404.173v0c5.325-0.819 10.24 3.277 11.059 8.602l12.288 104.858c0.819 5.325-3.277 10.24-8.602 11.059v0c-5.325 0.819-10.24-3.277-11.059-8.602l-12.288-104.858c-0.819-5.734 3.277-10.65 8.602-11.059zM711.475 390.246v0c5.325-0.819 10.24 3.277 11.059 8.602l14.746 124.928c0.819 5.325-3.277 10.24-8.602 11.059v0c-5.325 0.819-10.24-3.277-11.059-8.602l-14.746-124.928c-0.819-5.734 2.867-10.65 8.602-11.059zM745.472 417.69v0c5.325-0.819 10.24 3.277 11.059 8.602l7.373 63.078c0.819 5.325-3.277 10.24-8.602 11.059v0c-5.325 0.819-10.24-3.277-11.059-8.602l-7.373-63.078c-0.41-5.734 3.277-10.65 8.602-11.059zM648.397 384.102v0c5.325-0.819 10.24 3.277 11.059 8.602l18.022 151.962c0.819 5.325-3.277 10.24-8.602 11.059v0c-5.325 0.819-10.24-3.277-11.059-8.602l-18.022-151.962c-0.41-5.734 3.277-10.65 8.602-11.059zM615.629 368.947v0c5.325-0.819 10.24 3.277 11.059 8.602l22.528 189.645c0.819 5.325-3.277 10.24-8.602 11.059v0c-5.325 0.819-10.24-3.277-11.059-8.602l-22.528-189.645c-0.41-5.734 3.277-10.65 8.602-11.059zM589.005 404.582v0c5.325-0.819 10.24 3.277 11.059 8.602l14.746 124.928c0.819 5.325-3.277 10.24-8.602 11.059v0c-5.325 0.819-10.24-3.277-11.059-8.602l-14.746-124.928c-0.819-5.325 3.277-10.24 8.602-11.059zM562.381 442.266v0c5.325-0.819 10.24 3.277 11.059 8.602l6.963 57.344c0.819 5.325-3.277 10.24-8.602 11.059v0c-5.325 0.819-10.24-3.277-11.059-8.602l-6.963-57.344c-0.41-5.734 3.277-10.65 8.602-11.059zM542.31 483.635v0c-0.819-5.325-5.325-9.421-11.059-8.602l-26.624 3.277c-5.325 0.819-9.421 5.325-8.602 11.059v0c0.819 5.325 5.325 9.421 11.059 8.602l26.624-3.277c5.325-0.819 9.421-5.734 8.602-11.059zM176.947 599.142c0-5.203-4.218-9.421-9.421-9.421s-9.421 4.218-9.421 9.421c0 5.203 4.218 9.421 9.421 9.421s9.421-4.218 9.421-9.421zM897.843 569.651c0-5.203-4.218-9.421-9.421-9.421s-9.421 4.218-9.421 9.421c0 5.203 4.218 9.421 9.421 9.421s9.421-4.218 9.421-9.421zM1024 844.902c-3.686 52.429-47.514 94.208-101.171 94.208l-828.211-0.41c-52.429-3.686-94.208-47.514-94.208-101.171v-785.613h0.41c3.686-52.429 47.514-94.208 101.171-94.208h185.139c-12.288 33.587-35.635 69.222-61.85 108.134-43.827 65.536-93.798 140.083-115.917 239.616-33.178 148.275 15.155 246.579 37.683 282.214-6.144 4.096-9.83 10.65-10.65 18.432-0.819 13.517 9.83 25.395 23.757 26.214 7.373 0.41 13.926-2.048 18.842-6.554 2.048 1.229 4.506 1.638 6.963 2.048 9.011 0.41 16.794-6.144 17.203-14.746s-6.144-16.384-15.155-16.794c-1.229 0-2.458 0-3.686 0.41-4.096-7.373-11.469-12.698-20.89-13.107-1.229 0-2.867 0-4.096 0-20.48-31.949-70.042-129.434-37.683-274.842 21.709-97.485 70.861-170.803 114.278-235.52 27.853-41.37 52.429-78.643 64.717-115.098h19.661c31.949 42.189 94.208 106.496 177.357 105.677 58.163-0.819 155.648 12.288 242.483 42.189 70.042 24.576 156.467 68.403 168.346 138.854 17.203 104.448-5.325 252.723-15.565 309.248-8.192 0.41-15.155 4.915-19.251 11.059-11.878-4.915-26.624-6.963-45.466-5.734 42.598-89.702 49.152-192.102 1.229-270.336-103.629-168.755-302.694-123.699-425.984-103.629s-304.333 99.533-219.136 358.4c11.469 34.406 26.624 63.898 44.237 88.474-32.768 13.926-101.171 48.742-82.33 92.57 24.576 56.934 55.706 107.315 115.507 86.835 49.152-16.794 65.126-63.898 70.861-89.293 109.773 57.754 232.243 42.189 232.243 42.189 74.138-9.83 140.083-48.333 190.874-101.171 4.915 27.853 19.251 67.174 61.44 72.090 66.355 8.192 103.219-62.669 100.352-100.352-0.819-11.878-3.277-24.576-8.602-36.864 6.144-4.096 10.24-11.059 10.65-18.842 0.819-10.24-5.325-19.661-14.336-23.757 10.24-57.344 33.178-207.258 15.565-313.344-23.347-139.264-308.429-192.512-423.526-191.693-72.499 0.819-129.434-53.658-161.382-93.389l593.92 0.41c52.429 3.686 94.208 47.514 94.208 101.171v786.023z" />
<glyph unicode="&#xe90a;" glyph-name="mic" d="M512 960c-103.784 0-186.811-84.18-186.811-186.811v-324.036c0-102.631 83.027-186.811 186.811-186.811s186.811 84.18 186.811 186.811v324.036c0 103.784-84.18 186.811-186.811 186.811zM512 413.405c-25.369 0-46.126 20.757-46.126 46.126s20.757 46.126 46.126 46.126c25.369 0 46.126-20.757 46.126-46.126s-20.757-46.126-46.126-46.126zM512 563.315c-25.369 0-46.126 20.757-46.126 46.126s20.757 46.126 46.126 46.126c25.369 0 46.126-20.757 46.126-46.126s-20.757-46.126-46.126-46.126zM512 713.225c-25.369 0-46.126 20.757-46.126 46.126s20.757 46.126 46.126 46.126c25.369 0 46.126-20.757 46.126-46.126s-20.757-46.126-46.126-46.126zM791.063 608.288c-16.144 0-28.829-12.685-28.829-28.829v-130.306c0-138.378-111.856-250.234-250.234-250.234s-250.234 111.856-250.234 250.234v130.306c0 16.144-12.685 28.829-28.829 28.829s-28.829-12.685-28.829-28.829v-130.306c0-159.135 121.081-291.748 279.063-306.739v-148.757h-108.396c-16.144 0-28.829-12.685-28.829-28.829s12.685-28.829 28.829-28.829h274.45c16.144 0 28.829 12.685 28.829 28.829s-12.685 28.829-28.829 28.829h-108.396v148.757c157.982 14.991 279.063 147.604 279.063 306.739v130.306c0 16.144-12.685 28.829-28.829 28.829z" />
<glyph unicode="&#xe90b;" glyph-name="notification" d="M782 960c-132.334 0-240-107.666-240-240s107.666-240 240-240 242 107.666 242 240-109.666 240-242 240zM782 585c-16.568 0-30 13.432-30 30 0 16.572 13.432 30 30 30s30-13.428 30-30c0-16.568-13.432-30-30-30zM812 705c0-16.582-13.418-30-30-30s-30 13.418-30 30v120c0 16.582 13.418 30 30 30s30-13.418 30-30zM30 56h722c16.582 0 30 13.418 30 30s-13.418 30-30 30c-49.628 0-90 40.372-90 90v239.43c-100.708 44.206-171.622 142.244-178.268 257.446-4.318 1.572-8.964 2.358-13.366 3.75 7.184 12.924 11.634 27.568 11.634 43.374 0 49.628-40.372 90-90 90s-90-40.372-90-90c0-15.662 4.38-30.18 11.444-43.022-110.42-33.882-191.444-135.598-191.444-256.978v-244c0-49.628-42.372-90-92-90-16.582 0-30-13.418-30-30s13.418-30 30-30zM362 750c0 16.552 13.448 30 30 30s30-13.448 30-30-13.448-30-30-30-30 13.448-30 30zM476.474-4h-168.948c12.426-34.844 45.414-60 84.474-60s72.048 25.156 84.474 60z" />
<glyph unicode="&#xe90c;" glyph-name="pay" d="M1002.666 533.334h-981.332c-12.8 0-21.334-8.534-21.334-21.334v-298.666c0-59.734 46.934-106.666 106.666-106.666h810.666c59.734 0 106.666 46.934 106.666 106.666v298.666c0.002 12.8-8.532 21.334-21.332 21.334zM149.334 362.666h170.666c12.8 0 21.334-8.534 21.334-21.334s-8.534-21.334-21.334-21.334h-170.666c-12.8 0.002-21.334 8.536-21.334 21.336s8.534 21.332 21.334 21.332zM448 234.666h-298.666c-12.8 0-21.334 8.534-21.334 21.334s8.534 21.334 21.334 21.334h298.666c12.8 0 21.334-8.534 21.334-21.334s-8.534-21.334-21.334-21.334zM810.666 234.666c-17.066 0-29.866 4.266-42.666 12.8-12.8-8.534-25.6-12.8-42.666-12.8-46.934 0-85.334 38.4-85.334 85.334s38.4 85.334 85.334 85.334c17.066 0 29.866-4.266 42.666-12.8 12.8 8.534 25.6 12.8 42.666 12.8 46.934 0 85.334-38.4 85.334-85.334s-38.4-85.334-85.334-85.334zM917.334 789.334h-810.668c-59.732 0-106.666-46.934-106.666-106.668v-42.666c0-12.8 8.534-21.334 21.334-21.334h981.334c12.8 0 21.334 8.534 21.334 21.334v42.666c-0.002 59.734-46.936 106.668-106.668 106.668z" />
<glyph unicode="&#xe90d;" glyph-name="qrcode" d="M384 960h-384v-384h384v384zM320 640h-256v256h256v-256zM128 832h128v-128h-128v128zM0-64h384v384h-384v-384zM64 256h256v-256h-256v256zM128 192h128v-128h-128v128zM640 960v-384h384v384h-384zM960 640h-256v256h256v-256zM768 832h128v-128h-128v128zM128 512h-128v-128h192v64h-64zM448 384h128v-128h-128v128zM192 512h128v-64h-128v64zM576 192h-128v-64h64v-64h64v64zM384 512v-64h-64v-64h128v128zM512 704h64v-128h-64v128zM576 448v-64h128v128h-192v-64zM448 576h64v-64h-64v64zM576 64h128v-128h-128v128zM448 64h64v-128h-64v128zM576 256h64v-64h-64v64zM576 768v128h-64v64h-64v-256h64v64zM768 64h64v-128h-64v128zM768 192h128v-64h-128v64zM704 128h64v-64h-64v64zM640 192h64v-64h-64v64zM896 320v-64h64v-64h64v128h-64zM960 128h-64v-192h128v128h-64zM640 320v-64h192v128h-128v-64zM768 512v-64h128v-64h128v128h-128z" />
<glyph unicode="&#xe90e;" glyph-name="search" d="M1004.8 44.8l-198.72 198.72c56.192 74.944 89.92 167.616 89.92 268.48 0 247.424-200.576 448-448 448s-448-200.576-448-448 200.576-448 448-448c100.864 0 193.536 33.728 268.416 89.92l198.784-198.72c11.776-11.776 24.32-19.2 44.8-19.2 35.392 0 64 28.608 64 64 0 14.016-3.456 29.056-19.2 44.8zM128 512c0 176.768 143.232 320 320 320s320-143.232 320-320-143.232-320-320-320-320 143.232-320 320z" />
<glyph unicode="&#xe90f;" glyph-name="settings" d="M512 576c-70.57 0-128-57.43-128-128s57.43-128 128-128 128 57.43 128 128-57.43 128-128 128zM989.398 535.040l-56.49 10.88c-25.302 4.822-45.142 21.376-54.57 45.27-9.43 24.022-6.102 49.664 9.174 70.442l35.456 48.384c12.458 16.938 10.624 40.49-4.266 55.338l-76.586 76.586c-14.422 14.464-37.206 16.598-54.058 5.162l-47.658-32.214c-21.248-14.464-46.934-16.81-70.614-6.57-23.594 10.326-39.424 30.806-43.306 56.278l-9.13 59.222c-3.206 20.822-21.126 36.182-42.204 36.182h-108.288c-20.438 0-38.016-14.506-41.898-34.602l-14.038-72.96c-4.736-24.704-20.778-44.416-44.032-54.016-23.254-9.686-48.598-7.082-69.418 7.040l-61.526 41.642c-16.854 11.434-39.552 9.302-54.058-5.162l-76.586-76.588c-14.89-14.848-16.726-38.4-4.266-55.338l35.456-48.426c15.274-20.736 18.602-46.378 9.174-70.4-9.43-23.894-29.27-40.448-54.614-45.27l-56.448-10.88c-20.098-3.882-34.604-21.462-34.604-41.898v-108.288c0-21.078 15.36-38.998 36.182-42.198l59.222-9.13c25.472-3.882 45.952-19.712 56.278-43.306 10.282-23.594 7.894-49.322-6.57-70.656l-32.214-47.616c-11.478-16.896-9.302-39.594 5.162-54.058l76.586-76.586c14.89-14.934 38.4-16.64 55.338-4.266l48.426 35.456c20.736 15.232 46.336 18.518 70.4 9.174 23.894-9.43 40.448-29.27 45.27-54.614l10.88-56.448c3.882-20.1 21.462-34.606 41.898-34.606h108.288c21.078 0 38.998 15.36 42.198 36.182l6.4 41.642c4.010 26.070 20.266 46.762 44.586 56.79 24.15 10.070 50.39 6.954 71.68-8.662l34.006-24.918c16.854-12.374 40.448-10.666 55.338 4.266l76.586 76.586c14.464 14.464 16.64 37.162 5.162 54.058l-32.214 47.658c-14.464 21.29-16.854 47.018-6.57 70.614 10.326 23.594 30.806 39.424 56.278 43.306l59.222 9.13c20.822 3.2 36.182 21.12 36.182 42.198v108.288c0 20.44-14.506 38.020-34.602 41.902zM512 234.666c-117.632 0-213.334 95.702-213.334 213.334s95.702 213.334 213.334 213.334 213.334-95.702 213.334-213.334-95.702-213.334-213.334-213.334z" />
<glyph unicode="&#xe910;" glyph-name="shield" d="M512.001 960l-418.909-186.181v-279.273c0-258.561 178.501-499.665 418.909-558.546 240.408 58.881 418.909 299.985 418.909 558.546v279.273l-418.909 186.181zM512.001 32.58v415.418h-325.82v265.309l325.82 144.757v-409.6h325.818c-24.67-191.769-152.437-362.59-325.818-415.885z" />
<glyph unicode="&#xe911;" glyph-name="cheveron-down" d="M475.802 309.76l36.198-36.198 289.638 289.638-72.397 72.397-217.242-217.19-217.242 217.19-72.397-72.397z" />
<glyph unicode="&#xe912;" glyph-name="cheveron-left" d="M360.96 496.998l-36.198-36.198 289.638-289.638 72.397 72.397-217.19 217.242 217.19 217.242-72.397 72.397z" />
<glyph unicode="&#xe913;" glyph-name="cheveron-right" d="M663.040 424.602l36.198 36.198-289.638 289.638-72.397-72.397 217.19-217.242-217.19-217.242 72.397-72.397 253.44 253.44z" />
<glyph unicode="&#xe914;" glyph-name="cheveron-up" d="M548.198 611.84l-36.198 36.198-289.638-289.638 72.397-72.397 217.242 217.19 217.242-217.19 72.397 72.397z" />
<glyph unicode="&#xe915;" glyph-name="hashtag-symbol" d="M960 576v128h-160.128l32 256h-128l-32-256h-255.936l32 256h-128l-32-256h-223.936v-128h207.936l-31.936-256h-176v-128h160l-32-256h128l32 256h256l-32.064-256h128.064l32 256h224v128h-208l31.872 256h176.128zM624 320h-256l31.936 256h255.936l-31.872-256z" />
<glyph unicode="&#xe916;" glyph-name="iconfinder_-_Dot-More-Vertical-Menu_3844442" d="M416 448c0-52.928 43.072-96 96-96s96 43.072 96 96-43.072 96-96 96-96-43.072-96-96zM416 128c0-52.928 43.072-96 96-96s96 43.072 96 96-43.072 96-96 96-96-43.072-96-96zM416 768c0-52.928 43.072-96 96-96s96 43.072 96 96-43.072 96-96 96-96-43.072-96-96z" />
<glyph unicode="&#xe917;" glyph-name="menu" d="M0 819.2h1024v-102.4h-1024v102.4zM0 512h1024v-102.4h-1024v102.4zM0 204.8h1024v-102.4h-1024v102.4z" />
<glyph unicode="&#xe918;" glyph-name="playlist" d="M819.2 102.4c0-84.831-68.769-153.6-153.6-153.6v0h-102.4c-84.831 0-153.6 68.769-153.6 153.6s68.769 153.6 153.6 153.6v0h102.4c0.068 0 0.148 0 0.228 0 18.268 0 35.791-3.189 52.043-9.041l-1.071 0.337v674.304l307.2 51.2v-204.8l-204.8-34.304v-631.296zM0 819.2h614.4v-102.4h-614.4v102.4zM0 614.4h614.4v-102.4h-614.4v102.4zM0 409.6h614.4v-102.4h-614.4v102.4zM0 204.8h307.2v-102.4h-307.2v102.4z" />
<glyph unicode="&#xe919;" glyph-name="user" d="M256 716.8c0 141.385 114.615 256 256 256s256-114.615 256-256v0-102.4c0-141.385-114.615-256-256-256s-256 114.615-256 256v0 102.4zM0 118.784c146.431 86.26 322.601 137.217 510.673 137.217 0.466 0 0.933 0 1.399-0.001h-0.072c186.368 0 361.472-49.664 512-137.216v-169.984h-1024v169.984z" />
</font>
</defs>
</svg>
